<?xml version="1.0" encoding="UTF-8" standalone="no"?>
<svg
   width="60"
   height="60"
   viewBox="0 0 60 60"
   fill="none"
   stroke="currentColor"
   stroke-width="2"
   stroke-linecap="round"
   stroke-linejoin="round"
   class="lucide lucide-apple"
   version="1.1"
   id="svg2"
   sodipodi:docname="resource-food.svg"
   inkscape:version="1.3.1 (91b66b0783, 2023-11-16, custom)"
   xmlns:inkscape="http://www.inkscape.org/namespaces/inkscape"
   xmlns:sodipodi="http://sodipodi.sourceforge.net/DTD/sodipodi-0.dtd"
   xmlns="http://www.w3.org/2000/svg"
   xmlns:svg="http://www.w3.org/2000/svg">
  <defs
     id="defs2" />
  <sodipodi:namedview
     id="namedview2"
     pagecolor="#ffffff"
     bordercolor="#000000"
     borderopacity="0.25"
     inkscape:showpageshadow="2"
     inkscape:pageopacity="0.0"
     inkscape:pagecheckerboard="0"
     inkscape:deskcolor="#d1d1d1"
     inkscape:zoom="9.8666667"
     inkscape:cx="30"
     inkscape:cy="30"
     inkscape:window-width="1440"
     inkscape:window-height="831"
     inkscape:window-x="0"
     inkscape:window-y="0"
     inkscape:window-maximized="1"
     inkscape:current-layer="svg2" />
  <g
     id="g2"
     transform="matrix(2.6860147,0,0,2.6860147,-2.2321773,-2.2321773)"
     style="stroke-width:0.74459756;stroke-dasharray:none">
    <path
       d="m 12,20.046 c 1.35,0 2.475,0.954 3.6,0.954 2.7,0 5.4,-7.2 5.4,-10.998 A 4.419,4.419 0 0 0 16.5,5.7 C 14.502,5.7 12.9,6.996 12,7.5 11.1,6.996 9.498,5.7 7.5,5.7 A 4.41,4.41 0 0 0 3,10.002 C 3,13.8 5.7,21 8.4,21 9.525,21 10.65,20.046 12,20.046 Z"
       id="path1"
       style="fill:#ffccaa;stroke-width:0.74459756;stroke-dasharray:none" />
    <path
       d="M 10.2,3 C 11.1,3.45 12,4.8 12,7.5"
       id="path2"
       style="stroke-width:0.74459756;stroke-dasharray:none" />
  </g>
</svg>
